#!OML:ASF F:\VICON\USERDATA\INSTALL\rory3\rory3.ASF
:FULLY-SPECIFIED
:DEGREES
64
root 0.03152306873021654 18.125183898931397 24.99531764967528 -2.4220781651224894 -0.03849590983737894 -3.5952780276787726
lfemur -5.22547124000768 0.360199169416366 -15.559162352023549
ltibia 61.51845893903963
lfoot 13.935363943456505 -17.10993975546198
ltoes -12.869775561608654
rfemur -12.599661705572114 5.870952678571516 28.714182940146024
rtibia 28.010315801733796
rfoot -8.929894784547937 -3.1832740584278865
rtoes 7.844954637779219
lowerback 8.687039674248613 -0.48703489515581916 3.054025268938558
upperback 0.3277542412472067 -0.07281384143357428 2.29888417888563
thorax -4.712201963217443 -0.06808969503926154 0.5671880590925408
lowerneck -16.132791732808506 -2.499422331906038 -2.007145157575783
upperneck 20.8668175055298 -3.1851610202948204 1.1651603869080809
head 9.293926283078582 -1.5278015709021662 0.31567892982353324
lclavicle -4.533851670717123e-16 -7.764982111378828e-16
lhumerus -27.55472586338407 1.0520663858689074 81.66029096696349
lradius 28.355739111072268
lwrist 6.272247376869546
lhand -26.724997878107832 24.69823699679387
lfingers 7.12502
lthumb -0.09450767883906352 54.92128156781122
rclavicle -4.533851669773047e-16 -7.764982110643813e-16
rhumerus -30.331199101548258 -20.756655915308123 -76.90118654223959
rradius 22.374781727258156
rwrist 6.555916994734527
rhand -17.85180229352059 21.825645111195982
rfingers 7.12502
rthumb 8.474828492724706 -7.849705294988689
65
root 0.005297384341726663 18.115882323214592 25.608863138034117 -2.488034678606069 -0.6239359189059706 -3.8363235216451166
lfemur -10.087442371596905 2.613719843495964 -14.820720287333616
ltibia 65.69808848158348
lfoot 8.802158206902682 -13.097110917357902
ltoes -12.129300581996786
rfemur -10.283404913595234 5.827526150896636 29.390507148666618
rtibia 28.376245613660053
rfoot -9.327582856943696 -3.1959385696494738
rtoes 7.621001030187893
lowerback 8.774768644369706 -0.14353514396735867 3.406193269542219
upperback 0.3355132281196513 0.3386828995060408 2.1676895594693577
thorax -4.7354070199960585 0.1279051869767537 0.26547586316896443
lowerneck -16.026195146274848 -2.544546633989903 -1.951711075589733
upperneck 20.88575197609876 -3.2910180850715824 1.2489251008824083
head 9.28310496708445 -1.567888954288391 0.33502343918971494
lclavicle -4.533851670727541e-16 -7.764982111392938e-16
lhumerus -28.89827670719827 1.4924640690389044 81.85980726481402
lradius 27.676472125788578
lwrist 5.5923960772167165
lhand -27.788858830541546 22.04936597293202
lfingers 7.12502
lthumb -1.1216915129270857 52.33196950560796
rclavicle -4.533851669779747e-16 -7.764982110655908e-16
rhumerus -29.05302621120965 -18.89892450080208 -78.02826068615498
rradius 23.135444425388517
rwrist 5.14665071158578
rhand -17.94107881392748 21.298198240120197
rfingers 7.12502
rthumb 8.44540829244311 -8.21527228892005
66
root -0.008447421889298479 18.076234763478766 26.11507663279117 -2.5800348514504607 -1.399055932053093 -4.191129271594345
lfemur -15.353612174007985 4.753524581154492 -14.404547825894113
ltibia 67.65147772601098
lfoot 2.2573747599350833 -7.818244352344973
ltoes -10.95105389330994
rfemur -7.836944287825484 5.649793791320739 30.390692627609617
rtibia 28.830058766147793
rfoot -9.468082759298726 -3.1748046479182213
rtoes 7.39338400182543
lowerback 8.951533842936835 0.24955390245946954 4.029635453703953
upperback 0.2983080649520157 0.878578704402827 2.020728350444938
thorax -4.859979699617255 0.37709849230401926 -0.20181627339991726
lowerneck -15.973255696001189 -2.611254634851496 -1.9286709725778748
upperneck 20.87855071840862 -3.434085117985891 1.3715195756003031
head 9.277347705243397 -1.621498664179267 0.3574756484649116
lclavicle -4.533851670641222e-16 -7.764982111329335e-16
lhumerus -30.35902037180454 2.2720423739482856 81.85265801927937
lradius 27.20472509480871
lwrist 6.222846779839823
lhand -27.99446494736579 21.36663632477336
lfingers 7.12502
lthumb -1.2818921080300516 51.71436111381528
rclavicle -4.533851669793609e-16 -7.7649821106712895e-16
rhumerus -27.779385385464387 -16.85877720781744 -79.03694346722
rradius 24.284870059927282
rwrist 2.9287701581535774
rhand -18.061546281029273 20.97688985540533
rfingers 7.12502
rthumb 8.265157927889362 -8.601835070800215
67
root -0.014398965972764133 18.022759615613392 26.633259108394917 -2.6009855916185236 -2.2091427611022523 -4.652894615639054
lfemur -20.482066113715803 6.065859560356319 -14.098309848918605
ltibia 67.38633551549967
lfoot -3.1358253185608813 -2.675245867069816
ltoes -8.06472101070548
rfemur -5.76357355170132 5.299501578750569 31.553261042888572
rtibia 29.351007839413818
rfoot -9.682639021022904 -3.035395317586508
rtoes 7.616044444896114
lowerback 9.282671576354273 0.616445416291691 4.779306380249655
upperback 0.23999534362339037 1.4680949185438046 1.9081183921741562
thorax -5.051084544005805 0.6471211735244891 -0.7658526996816195
lowerneck -15.991351327264784 -2.678747525891965 -1.8917731324677833
upperneck 20.781615510998964 -3.5413773124373655 1.4118024550433814
head 9.242261788159372 -1.658653126932149 0.3434700046615062
lclavicle -4.533851670526306e-16 -7.764982111247127e-16
lhumerus -31.806345487346487 3.294280351607966 81.77909302931116
lradius 26.811386661007457
lwrist 6.704962841709764
lhand -28.660181877132914 19.847020422252882
lfingers 7.12502
lthumb -2.04863412736696 49.95278869497002
rclavicle -4.533851669773057e-16 -7.764982110660816e-16
rhumerus -26.565497078634024 -15.11174201838634 -79.80024473731018
rradius 25.575779630877708
rwrist 0.8371912341642611
rhand -18.282861200635555 20.84316116621733
rfingers 7.12502
rthumb 8.022409130822453 -8.812641482570697
68
root -0.010364195657562913 17.958630228242665 27.30974557523681 -2.4242742780684168 -3.2148364912441347 -5.233996711407089
lfemur -24.67238513459605 6.638463219138689 -13.670347428308009
ltibia 64.65692250453105
lfoot -7.442055800864424 2.534929913198809
ltoes -3.488365300661978
rfemur -4.160839149890878 5.220232491895973 32.59448902551152
rtibia 29.765972063745778
rfoot -9.751480797426439 -2.7692926869176775
rtoes 8.131500014299608
lowerback 9.682222103348694 1.0282342849448722 5.646771199242043
upperback 0.1707810100576679 2.088471709173922 1.8248504684844482
thorax -5.223343188483856 0.9217088305911527 -1.3337974768821395
lowerneck -16.060278133593044 -2.7356219408512117 -1.839860739624698
upperneck 20.65289985448772 -3.6269986263620284 1.4311118555110491
head 9.201591808396419 -1.693234462605932 0.33225203029929024
lclavicle -4.5338516704237315e-16 -7.764982111172414e-16
lhumerus -33.082598292853405 4.4051726319260665 81.6269595673352
lradius 26.347424791146786
lwrist 6.918540671670616
lhand -29.24197800213882 19.2850697732329
lfingers 7.12502
lthumb -2.5008499793367114 49.50964825416389
rclavicle -4.533851669764303e-16 -7.76498211065834e-16
rhumerus -25.220379830120955 -13.629416805322814 -80.49377657622261
rradius 26.69453326009438
rwrist -0.9457470504994712
rhand -18.468853839794622 21.273193620934908
rfingers 7.12502
rthumb 7.740817109764938 -8.566107283413052
69
root -0.007006198361242166 17.93608341503941 27.755715509054237 -2.0842488344508134 -4.042633600037959 -5.898159362580541
lfemur -27.826498096974866 6.157685968514494 -13.140500008809878
ltibia 59.31117715834907
lfoot -9.158854468273642 6.383705055125376
ltoes -0.9060014280676238
rfemur -1.9034440618957884 5.324211802536393 33.53224188987841
rtibia 28.92361427035377
rfoot -9.675355519595199 -2.6940290253449417
rtoes 8.645159425093043
lowerback 9.702250461252303 1.3902506965667736 6.505663446390629
upperback 0.12277066222784734 2.664290552655769 1.802869962716218
thorax -5.219916153351295 1.1867968291209563 -1.8851244896402684
lowerneck -16.14749393865157 -2.784606261079176 -1.7721889276316531
upperneck 20.481488953114994 -3.711429095203438 1.40616962218561
head 9.147591236093033 -1.7307953057062067 0.30174232602065243
lclavicle -4.533851670327073e-16 -7.764982111100414e-16
lhumerus -34.324956365037394 5.74673225104179 81.21731480439568
lradius 25.656024039880517
lwrist 6.811335405512594
lhand -29.621885602640944 18.066166803073138
lfingers 7.12502
lthumb -2.826857332370486 48.21638252483349
rclavicle -4.533851669730154e-16 -7.76498211063334e-16
rhumerus -24.372188366243424 -12.713683847670453 -80.86789914919979
rradius 27.66471984176953
rwrist -2.1178907806921305
rhand -18.54771914663334 22.183571639147953
rfingers 7.12502
rthumb 7.725656084631584 -7.563506592773825
70
root 0.0014098222506404579 17.88528107602044 28.536483708677665 -1.4200001431946694 -4.8440299865777146 -6.433849183438082
lfemur -29.91374329585568 4.53744526923942 -12.438959427839748
ltibia 51.18138221385321
lfoot -10.492008580008374 8.539120330794656
ltoes 0.17371316200250453
rfemur 0.5663999021117672 5.426671557593655 34.200051065280036
rtibia 27.770442508347074
rfoot -9.27696588554249 -2.952585148195447
rtoes 8.969786705198395
lowerback 9.508533644717575 1.7304584242617003 7.165432617376232
upperback 0.04970382059209248 3.160654428482924 1.803580726130611
thorax -5.164418455075248 1.4115884388637823 -2.358877067940579
lowerneck -16.24420126382179 -2.8163401349079376 -1.6852771452016595
upperneck 20.302988797175065 -3.77825158859084 1.4159318051672654
head 9.094854730554601 -1.755004859958259 0.28512150697762434
lclavicle -4.533851670280605e-16 -7.764982111064635e-16
lhumerus -35.51712158844207 7.057842930142242 80.68082946994672
lradius 24.770558405514716
lwrist 6.038809698141864
lhand -30.020868774497217 16.90862224140285
lfingers 7.12502
lthumb -3.3190383216899386 46.7811293525526
rclavicle -4.533851669689413e-16 -7.764982110602615e-16
rhumerus -23.69455218724739 -12.008338293259001 -81.18407077202147
rradius 28.377860655281957
rwrist -2.5350456328721096
rhand -18.627612899534586 22.774348507876834
rfingers 7.12502
rthumb 7.701137433323444 -6.839582826333448
